<?xml version="1.0" encoding="utf-8"?>
<!-- Generator: Adobe Illustrator 24.1.1, SVG Export Plug-In . SVG Version: 6.00 Build 0)  -->
<svg version="1.1" id="Layer_1" xmlns="http://www.w3.org/2000/svg" xmlns:xlink="http://www.w3.org/1999/xlink" x="0px" y="0px"
	 viewBox="0 0 249.2 124.8" style="enable-background:new 0 0 249.2 124.8;" xml:space="preserve">
<style type="text/css">
	.st0{fill:#FFFFFF;}
</style>
<g>
	<path class="st0" d="M2.5,95v7.5H0V85.1h8.8v2.3H2.5v5.2h6.3V95H2.5L2.5,95z"/>
	<path class="st0" d="M13.3,102.6V85.1h2.5v17.5C15.9,102.6,13.3,102.6,13.3,102.6z"/>
	<path class="st0" d="M32.4,102.6l-8.6-13.5l0,0v13.5h-2.5V85.1h2.8l8.5,13.3l0,0V85.1H35v17.5H32.4z"/>
	<path class="st0" d="M51.7,102.6l-1.9-5.1h-6.3l-1.9,5.1h-2.7l6.6-17.5h2.3l6.6,17.5H51.7z M46.6,88.4L46.6,88.4l-2.3,6.7h4.5
		L46.6,88.4z"/>
	<path class="st0" d="M69.4,102.6l-8.6-13.5l0,0v13.5h-2.5V85.1H61l8.5,13.3l0,0V85.1H72v17.5H69.4z"/>
	<path class="st0" d="M90.4,89.6c-1.3-1.5-2.9-2.5-4.9-2.5c-3.7,0-6.5,3-6.5,6.7c0,3.5,2.8,6.8,6.4,6.8c1.8,0,3.6-0.9,4.8-2.3h3.1
		c-1.7,2.9-4.6,4.6-7.9,4.6c-5,0-9-4.2-9-9.1c0-5,4-9,9-9c1.9,0,3.8,0.6,5.3,1.7c1.2,0.9,2,1.8,2.7,3.1L90.4,89.6L90.4,89.6z"/>
	<path class="st0" d="M97.3,102.6V85.1h9.4v2.3h-6.9v5.1h6.9v2.3h-6.9v5.3h6.9v2.3L97.3,102.6L97.3,102.6z"/>
	<path class="st0" d="M119.6,95.7c-0.5,0.2-1.1,0.3-1.7,0.3l4.9,6.5h-3.2l-5.8-8.1l0,0v8.1h-2.5V85.1h5.4c1.7,0,3.4,0.3,4.6,1.5
		c1.1,1.1,1.6,2.6,1.6,4.1C122.9,93.1,121.9,94.9,119.6,95.7z M116.5,87.5h-2.7v6.7h1.7c2.3,0,4.8-0.6,4.8-3.4
		C120.4,88.5,118.6,87.5,116.5,87.5z"/>
</g>
<g>
	<path class="st0" d="M55.9,47.1c0,0.3-0.1,0.7-0.2,1c-6.6,14-13,23.5-23.5,23.5c-5.4,0-8.4-3.6-8.4-9.8c-4,5.6-8.7,9.8-14.5,9.8
		C3,71.6,0,66.2,0,59.5c0-14.7,11.4-40.8,25.2-40.8c5.1,0,8.4,2.2,10.2,5.7l2.2-5.8l6-17.1C43.9,0.6,44.9,0,45.8,0
		c1.9,0,2.7,1.9,2.3,3.1C47,6.3,33.4,44.4,32.4,47.5c-1.7,5.1-3.8,11.7-3.8,14.7c0,2.7,1,4.7,3.6,4.7c8.2,0,13.7-9.3,19-20.8
		c0.5-0.8,1.4-1.3,2.3-1.3c0.2,0,0.6,0.1,0.9,0.2C55.3,45.4,55.9,46.2,55.9,47.1z M29.7,38.7c1-2.3,1.8-4.6,2.6-6.4
		c0.1-0.3,0.1-0.6,0.1-0.8c-0.2-5.1-2.8-8.2-7.3-8.2C14.7,23.7,5,47.7,4.8,58.7c0,4.9,1,8.2,4.4,8.2C18.4,66.9,25.2,50.1,29.7,38.7z
		"/>
	<path class="st0" d="M92,47.2c0,0.3-0.1,0.6-0.2,0.9c-7.4,16.1-16.1,23.5-27.5,23.5c-9.4,0-15.1-6.2-14.9-15.3
		C50,42,61.8,18.7,75.2,18.7c5.7,0,9.7,2.9,9.7,8.3c0,11.9-17,19-29.6,22c-0.8,2.9-1.1,5-1.3,7.4c-0.2,6.4,3.4,10.3,10.2,10.5
		c9.3,0.2,16.6-6.3,23-20.7c0.6-1.1,1.9-1.7,3.2-1.2C91.4,45.4,92,46.3,92,47.2z M80.1,27c0-3-2.4-3.6-4.9-3.6
		c-7.9,0-14.5,11.6-18.1,20.2C66.6,40.7,80.1,35.2,80.1,27z"/>
	<path class="st0" d="M102.1,71.6c-9.4,0-17.2-7.3-17.2-16.3c0.7-10.1,6.4-16.7,15.5-16.7c5.9,0,10.7,5.1,10.9,11.3
		c0,1.3-1,2.3-2.4,2.3s-2.4-1-2.4-2.3c-0.2-3.8-3.1-6.6-6-6.6c-6.3,0-10.4,5.1-10.8,12c0,6.8,5.8,11.6,12.4,11.6
		c9.2,0,15.8-5.9,16.1-15.2c-0.1-4.9-1.8-8.2-7.9-18.6c-0.8,0.8-1.6,1.7-2.3,2.6c-0.5,0.6-1.1,0.9-1.8,0.9c-0.6,0-1.3-0.1-1.7-0.6
		c-0.6-0.4-0.8-1.2-0.8-1.9c0-0.4,0.2-1,0.6-1.5c1.4-1.6,2.5-2.8,3.9-4.1c-1-2.4-1.7-4.8-1.7-7.4c0-5.8,3.6-10.7,8.3-10.7
		c3.3,0,5.2,2.6,5.5,5.8c0,4.5-2.8,9.4-6.4,13.3c5.9,10.7,9,14.7,9.1,22.3C122.7,63.9,113.6,71.6,102.1,71.6z M115.3,16.2
		c0-1.6-1.3-1.2-2.4-0.1c-1.4,1.3-1.7,3.4-1.7,4.9c0,1.2,0.2,2.3,0.6,3.6C113.6,22.2,115.3,18.7,115.3,16.2z"/>
	<path class="st0" d="M156.8,47.1c0,0.3-0.1,0.7-0.2,1c-5.5,12.1-11.4,23.5-20.9,23.5c-5.5,0-8.4-4.3-8.2-9.4
		c0.3-8.7,8.4-29.2,13.4-42c0.3-1,1.3-1.6,2.2-1.6c1.5,0,3,1.1,2.3,3c-11,30.5-13.1,35.7-13.1,40.5c0,3.2,1,4.7,3.4,4.7
		c7.1,0,12.3-11.5,16.5-20.7c0.5-0.9,1.4-1.5,2.3-1.5c0.3,0,0.6,0.1,0.9,0.2C156.2,45.3,156.8,46.2,156.8,47.1z M143.8,9.2
		c0-2.1,1.8-3.8,4-3.8s3.9,1.7,3.9,3.8S150,13,147.8,13S143.8,11.3,143.8,9.2z"/>
	<path class="st0" d="M203.8,47.2c0,0.3-0.1,0.7-0.2,1C196.5,64.5,187,75,170.4,79.8c-5.5,15.3-12.5,23.3-20.7,23.4
		c-6.8,0.1-11.3-4.3-11.3-10.9c0-7,5.6-12.2,19.2-14.7c2.8-0.4,5.9-1,9-1.8l3.4-9.6c-3.1,3.1-6.7,5.4-10.8,5.4
		c-7.5,0-9.3-5.7-9.3-12.9c0.6-14.8,11.4-40,24.9-40c5.1,0,8.5,2.3,10.5,6.2l1.8-4.6c0.3-1,1.3-1.6,2.2-1.6c1.6,0,3.1,1.2,2.4,3.2
		c-1.8,4.4-4.9,12.4-8.5,21.9l-6,16.7l-4.8,13.6c13.1-4.4,21.1-14.7,26.8-27.9c0.5-0.9,1.3-1.5,2.2-1.5c0.3,0,0.7,0.1,1,0.2
		C203.2,45.5,203.8,46.3,203.8,47.2z M164.8,81.1c-2.2,0.4-4.2,0.9-6.3,1.2c-10.5,1.8-14.9,4.7-15.4,9.8c0,3.9,2.6,6.4,6.5,6.3
		C155.8,98.3,161.1,92.4,164.8,81.1z M179.6,38.8l2.5-6.4c0-5.9-3.1-9.1-7.2-9.1c-10.6,0.2-19.9,24.4-20.1,35.5
		c-0.2,4.6,0,8.1,4.2,8.1C168.1,66.9,175.1,50.2,179.6,38.8z"/>
	<path class="st0" d="M249.2,47.1c0,0.3-0.1,0.7-0.2,1c-7.7,16.9-13.1,23.5-20.8,23.5c-5.5,0-8.2-3.9-8.2-9.4
		c0-10.5,8.9-23.5,8.9-33.2c0-3.2-1.5-5.8-5.9-5.8c-6.9,0-15.6,15.1-19.2,24.6l-8,22.1c-0.5,1.3-1.8,1.9-3.1,1.6
		c-1.3-0.4-1.9-1.7-1.5-3c5.9-16.1,13.1-36.4,17.5-48.3c0.3-1,1.3-1.6,2.3-1.6c1.7,0,2.8,1.7,2.3,3.1l-0.9,2.2
		c3.3-3.4,6.8-5.5,10.6-5.5c8.2,0,10.7,4.6,10.7,10.5c0,10-8.9,24.6-8.9,33.2c0,3.2,1,4.7,3.4,4.7c5.4,0,9.4-5.9,16.4-20.7
		c0.5-0.9,1.3-1.5,2.2-1.5c0.3,0,0.7,0.1,1,0.2C248.6,45.4,249.2,46.2,249.2,47.1z"/>
</g>
</svg>
